<svg width="119" height="118" xmlns="http://www.w3.org/2000/svg" xmlns:xlink="http://www.w3.org/1999/xlink" xml:space="preserve" overflow="hidden"><g transform="translate(-425 -331)"><path d="M107.921 10.325C106.2 8.60417 95.1375 10.5708 85.9187 13.0292 89.2375 14.9958 92.6792 17.7 95.9979 21.0187 99.4396 24.4604 102.144 27.9021 104.11 31.3437 106.569 21.8792 109.765 12.0458 107.921 10.325Z" fill="#FFFFFF" transform="matrix(1.00847 0 0 1 425 331)"/><path d="M39.4562 45.3563 35.2771 43.7583C33.5562 43.1437 31.7125 43.5125 30.3604 44.7417L10.8167 64.2854C7.62083 67.4812 10.5708 73.0125 14.9958 72.0292L31.3437 68.3417C32.6958 62.1958 34.9083 53.9604 39.4562 45.3563Z" fill="#FFFFFF" transform="matrix(1.00847 0 0 1 425 331)"/><path d="M72.0292 77.4375C63.7938 81.7396 55.9271 84.075 49.5354 85.3042L45.725 102.758C44.7417 107.183 50.15 110.256 53.4688 106.938L73.0125 87.3937C74.2417 86.1646 74.7333 84.1979 73.9958 82.4771L72.0292 77.4375Z" fill="#FFFFFF" transform="matrix(1.00847 0 0 1 425 331)"/><path d="M79.2812 15.2417C72.0292 18.1917 63.7938 23.2312 55.8042 31.2208 41.1771 45.8479 36.875 63.5479 35.6458 73.6271L43.2667 81.2479C53.3458 80.0187 71.1687 75.8396 85.7958 61.2125 93.7854 53.2229 98.825 45.1104 101.775 37.8583 100.177 33.8021 96.9812 29.0083 92.4333 24.3375 88.0083 20.0354 83.3375 16.8396 79.2812 15.2417ZM85.55 41.7917C82.7229 44.6187 78.0521 44.6187 75.1021 41.7917 72.275 38.9646 72.275 34.2937 75.1021 31.3437 77.9292 28.5167 82.6 28.5167 85.55 31.3437 88.3771 34.2937 88.3771 38.9646 85.55 41.7917Z" fill="#FFFFFF" transform="matrix(1.00847 0 0 1 425 331)"/><path d="M35.5229 81.3708C33.5562 79.4042 33.8021 76.0854 29.7458 80.1417 25.6896 84.1979 19.6667 93.4167 21.5104 95.3833 23.4771 97.35 32.6958 91.2042 36.7521 87.1479 40.8083 82.9688 37.4896 83.2146 35.5229 81.3708Z" fill="#FFFFFF" transform="matrix(1.00847 0 0 1 425 331)"/></g></svg>