<svg width="141" height="141" xmlns="http://www.w3.org/2000/svg" xmlns:xlink="http://www.w3.org/1999/xlink" xml:space="preserve" overflow="hidden"><g transform="translate(-425 -331)"><path d="M553.956 343.337C551.9 341.281 538.681 343.631 527.666 346.569 531.631 348.919 535.744 352.15 539.709 356.116 543.822 360.228 547.053 364.341 549.403 368.453 552.341 357.144 556.159 345.394 553.956 343.337Z" fill="#FFFFFF"/><path d="M472.147 385.197 467.153 383.288C465.097 382.553 462.894 382.994 461.278 384.462L437.925 407.816C434.106 411.634 437.631 418.244 442.919 417.069L462.453 412.663C464.069 405.319 466.712 395.478 472.147 385.197Z" fill="#FFFFFF"/><path d="M511.069 423.531C501.228 428.672 491.828 431.462 484.191 432.931L479.638 453.788C478.462 459.075 484.925 462.747 488.891 458.781L512.244 435.428C513.713 433.959 514.3 431.609 513.419 429.553L511.069 423.531Z" fill="#FFFFFF"/><path d="M519.734 349.212C511.069 352.737 501.228 358.759 491.681 368.306 474.203 385.784 469.062 406.934 467.594 418.978L476.7 428.084C488.744 426.616 510.041 421.622 527.519 404.144 537.066 394.597 543.088 384.903 546.612 376.237 544.703 371.391 540.884 365.663 535.45 360.081 530.162 354.941 524.581 351.122 519.734 349.212ZM527.225 380.938C523.847 384.316 518.266 384.316 514.741 380.938 511.362 377.559 511.362 371.978 514.741 368.453 518.119 365.075 523.7 365.075 527.225 368.453 530.603 371.978 530.603 377.559 527.225 380.938Z" fill="#FFFFFF"/><path d="M467.447 428.231C465.097 425.881 465.391 421.916 460.544 426.763 455.697 431.609 448.5 442.625 450.703 444.975 453.053 447.325 464.069 439.981 468.916 435.134 473.763 430.141 469.797 430.434 467.447 428.231Z" fill="#FFFFFF"/></g></svg>